# xmcd
#
# Track frame offsets:
#	150
#	9127
#	19614
#	32939
#	47772
#	60344
#	76214
#	100189
#	118344
#	129376
#	157167
#	167717
#	197116
#	208163
#
# Disc length: 3151
#
# Revision: 1
# Processed by: cddbd v1.5.1PL0 Copyright (c) Steve Scherf et al.
# Submitted via: CDex 1.50
# Normalized: r0:TDELIM( - )
#
DISCID=b50c4d0e
DTITLE=Various Artist - Jazz Vibes
DYEAR=1999
DGENRE=Jazz
TTITLE0=Bill Le Sage - Snatch Happy
TTITLE1=Earl Bostic feat. Roland Johnson - Ain't misbehavin'
TTITLE2=Lionel Hampton - - Nava Hagila
TTITLE3=Earl Bostic feat. Gene Reed - Wee gee board
TTITLE4=Lionel Hampton - Railroad No. 1
TTITLE5=Louis Armstrong Allstars feat. Tyree Glenn - I love Paris
TTITLE6=Victor Feldman - Duffle Coat
TTITLE7=Tony Kinsey Quartet - Girl in blue
TTITLE8=Earl Bostic feat. Elmar Schmidt - Does your heart beat for me
TTITLE9=Lionel Hampton - Take the A'train
TTITLE10=Earl Bostic feat. Gene Reed - Over the waves rock
TTITLE11=Victor Feldman - Suite sixteen
TTITLE12=Lionel Hampton - Playboy theme
TTITLE13=Lionel Hampton - Mr. J
EXTD=YEAR: 1999
EXTT0=
EXTT1=
EXTT2=
EXTT3=
EXTT4=
EXTT5=
EXTT6=
EXTT7=
EXTT8=
EXTT9=
EXTT10=
EXTT11=
EXTT12=
EXTT13=
PLAYORDER=
